<?xml version="1.0" encoding="UTF-8" standalone="no"?><svg xmlns="http://www.w3.org/2000/svg" xmlns:xlink="http://www.w3.org/1999/xlink" contentScriptType="application/ecmascript" contentStyleType="text/css" height="858px" preserveAspectRatio="none" style="width:2241px;height:858px;" version="1.1" viewBox="0 0 2241 858" width="2241px" zoomAndPan="magnify"><defs><filter height="300%" id="f1ab9b1ze0l6b2" width="300%" x="-1" y="-1"><feGaussianBlur result="blurOut" stdDeviation="2.0"/><feColorMatrix in="blurOut" result="blurOut2" type="matrix" values="0 0 0 0 0 0 0 0 0 0 0 0 0 0 0 0 0 0 .4 0"/><feOffset dx="4.0" dy="4.0" in="blurOut2" result="blurOut3"/><feBlend in="SourceGraphic" in2="blurOut3" mode="normal"/></filter></defs><g><!--cluster Bleu--><polygon fill="#FFFFFF" filter="url(#f1ab9b1ze0l6b2)" points="22,24,56,24,63,44.6919,2219,44.6919,2219,846,22,846,22,24" style="stroke: #000000; stroke-width: 1.5;"/><line style="stroke: #000000; stroke-width: 1.5;" x1="22" x2="63" y1="44.6919" y2="44.6919"/><text fill="#000000" font-family="Ricty Diminished" font-size="14" font-weight="bold" lengthAdjust="spacingAndGlyphs" textLength="28" x="26" y="37.6836">Bleu</text><!--cluster heap--><polygon fill="#FFFFFF" filter="url(#f1ab9b1ze0l6b2)" points="791,65,825,65,832,85.6919,1041,85.6919,1041,362,791,362,791,65" style="stroke: #000000; stroke-width: 1.5;"/><line style="stroke: #000000; stroke-width: 1.5;" x1="791" x2="832" y1="85.6919" y2="85.6919"/><text fill="#000000" font-family="Ricty Diminished" font-size="14" font-weight="bold" lengthAdjust="spacingAndGlyphs" textLength="28" x="795" y="78.6836">heap</text><!--cluster io_data--><polygon fill="#FFFFFF" filter="url(#f1ab9b1ze0l6b2)" points="303,76.5,358,76.5,365,97.1919,511,97.1919,511,219.5,303,219.5,303,76.5" style="stroke: #000000; stroke-width: 1.5;"/><line style="stroke: #000000; stroke-width: 1.5;" x1="303" x2="365" y1="97.1919" y2="97.1919"/><text fill="#000000" font-family="Ricty Diminished" font-size="14" font-weight="bold" lengthAdjust="spacingAndGlyphs" textLength="49" x="307" y="90.1836">io_data</text><!--cluster list--><polygon fill="#FFFFFF" filter="url(#f1ab9b1ze0l6b2)" points="164,415.5,198,415.5,205,436.1919,462,436.1919,462,822,164,822,164,415.5" style="stroke: #000000; stroke-width: 1.5;"/><line style="stroke: #000000; stroke-width: 1.5;" x1="164" x2="205" y1="436.1919" y2="436.1919"/><text fill="#000000" font-family="Ricty Diminished" font-size="14" font-weight="bold" lengthAdjust="spacingAndGlyphs" textLength="28" x="168" y="429.1836">list</text><!--cluster queue--><polygon fill="#FFFFFF" filter="url(#f1ab9b1ze0l6b2)" points="788,398,829,398,836,418.6919,1044,418.6919,1044,599,788,599,788,398" style="stroke: #000000; stroke-width: 1.5;"/><line style="stroke: #000000; stroke-width: 1.5;" x1="788" x2="836" y1="418.6919" y2="418.6919"/><text fill="#000000" font-family="Ricty Diminished" font-size="14" font-weight="bold" lengthAdjust="spacingAndGlyphs" textLength="35" x="792" y="411.6836">queue</text><!--cluster rng--><polygon fill="#FFFFFF" filter="url(#f1ab9b1ze0l6b2)" points="1068,386,1095,386,1102,406.6919,2195,406.6919,2195,794.5,1068,794.5,1068,386" style="stroke: #000000; stroke-width: 1.5;"/><line style="stroke: #000000; stroke-width: 1.5;" x1="1068" x2="1102" y1="406.6919" y2="406.6919"/><text fill="#000000" font-family="Ricty Diminished" font-size="14" font-weight="bold" lengthAdjust="spacingAndGlyphs" textLength="21" x="1072" y="399.6836">rng</text><!--cluster xorshift--><polygon fill="#FFFFFF" filter="url(#f1ab9b1ze0l6b2)" points="1474,427,1536,427,1543,447.6919,2171,447.6919,2171,770.5,1474,770.5,1474,427" style="stroke: #000000; stroke-width: 1.5;"/><line style="stroke: #000000; stroke-width: 1.5;" x1="1474" x2="1543" y1="447.6919" y2="447.6919"/><text fill="#000000" font-family="Ricty Diminished" font-size="14" font-weight="bold" lengthAdjust="spacingAndGlyphs" textLength="56" x="1478" y="440.6836">xorshift</text><!--cluster xorshift_plus--><polygon fill="#FFFFFF" filter="url(#f1ab9b1ze0l6b2)" points="1092,427,1189,427,1196,447.6919,1450,447.6919,1450,770.5,1092,770.5,1092,427" style="stroke: #000000; stroke-width: 1.5;"/><line style="stroke: #000000; stroke-width: 1.5;" x1="1092" x2="1196" y1="447.6919" y2="447.6919"/><text fill="#000000" font-family="Ricty Diminished" font-size="14" font-weight="bold" lengthAdjust="spacingAndGlyphs" textLength="91" x="1096" y="440.6836">xorshift_plus</text><!--class Comparer--><rect fill="#F8F8F8" filter="url(#f1ab9b1ze0l6b2)" height="59.5356" id="Comparer" style="stroke: #383838; stroke-width: 1.5;" width="254" x="478" y="477"/><ellipse cx="576.75" cy="493" fill="#B1B1B1" rx="11" ry="11" style="stroke: #383838; stroke-width: 1.0;"/><path d="M577.7344,497.9063 L578.4688,497.9063 L578.4688,499.3594 L574.4688,499.3594 L574.4688,497.9063 L575.2031,497.9063 L575.2031,487.875 L574.4688,487.875 L574.4688,486.4219 L578.4688,486.4219 L578.4688,487.875 L577.7344,487.875 L577.7344,497.9063 Z "/><text fill="#000000" font-family="Ricty Diminished" font-size="12" font-style="italic" lengthAdjust="spacingAndGlyphs" textLength="48" x="597.25" y="496.718">Comparer</text><line style="stroke: #383838; stroke-width: 1.5;" x1="479" x2="731" y1="509" y2="509"/><line style="stroke: #383838; stroke-width: 1.5;" x1="479" x2="731" y1="517" y2="517"/><ellipse cx="489" cy="528" fill="#A6A6A6" rx="3" ry="3" style="stroke: #545454; stroke-width: 1.0;"/><text fill="#000000" font-family="Ricty Diminished" font-size="11" lengthAdjust="spacingAndGlyphs" textLength="228" x="498" y="530.1736">Compare(const void*, const void*): int</text><!--class Deleter--><rect fill="#F8F8F8" filter="url(#f1ab9b1ze0l6b2)" height="59.5356" id="Deleter" style="stroke: #383838; stroke-width: 1.5;" width="110" x="38" y="477"/><ellipse cx="69.2" cy="493" fill="#B1B1B1" rx="11" ry="11" style="stroke: #383838; stroke-width: 1.0;"/><path d="M70.1844,497.9063 L70.9188,497.9063 L70.9188,499.3594 L66.9188,499.3594 L66.9188,497.9063 L67.6531,497.9063 L67.6531,487.875 L66.9188,487.875 L66.9188,486.4219 L70.9188,486.4219 L70.9188,487.875 L70.1844,487.875 L70.1844,497.9063 Z "/><text fill="#000000" font-family="Ricty Diminished" font-size="12" font-style="italic" lengthAdjust="spacingAndGlyphs" textLength="42" x="86.8" y="496.718">Deleter</text><line style="stroke: #383838; stroke-width: 1.5;" x1="39" x2="147" y1="509" y2="509"/><line style="stroke: #383838; stroke-width: 1.5;" x1="39" x2="147" y1="517" y2="517"/><ellipse cx="49" cy="528" fill="#A6A6A6" rx="3" ry="3" style="stroke: #545454; stroke-width: 1.0;"/><text fill="#000000" font-family="Ricty Diminished" font-size="11" lengthAdjust="spacingAndGlyphs" textLength="84" x="58" y="530.1736">Delete(void**)</text><!--class Heap--><rect fill="#F8F8F8" filter="url(#f1ab9b1ze0l6b2)" height="71.0713" id="Heap" style="stroke: #383838; stroke-width: 1.5;" width="116" x="858" y="275"/><ellipse cx="900" cy="291" fill="#C2C2C2" rx="11" ry="11" style="stroke: #383838; stroke-width: 1.0;"/><path d="M902.7031,296.4375 Q901.7813,297.3594 899.5156,297.3594 Q898.25,297.3594 897.3281,296.4375 Q895.6719,294.7813 895.6719,291.25 Q895.6719,287.1406 897.4531,285.3438 Q898.3906,284.4219 899.5781,284.4219 Q901.8438,284.4219 902.5781,285.1406 Q903.9688,286.5469 903.9063,288.9375 L901.4375,288.9375 Q901.375,286.8125 900.6406,286.0781 Q900.25,285.6719 899.5781,285.6719 Q899.5781,285.6719 899.5156,286.1406 Q898.1875,287.4688 898.1875,291.125 Q898.1875,294.3125 899.3281,295.4375 Q899.8594,295.9688 899.8594,295.9688 Q900.1094,295.9688 900.6406,295.4375 Q901.3125,294.7813 901.375,292.3906 L903.9688,292.3906 Q903.7656,295.375 902.7031,296.4375 Z "/><text fill="#000000" font-family="Ricty Diminished" font-size="12" lengthAdjust="spacingAndGlyphs" textLength="24" x="920" y="294.718">Heap</text><line style="stroke: #383838; stroke-width: 1.5;" x1="859" x2="973" y1="307" y2="307"/><line style="stroke: #383838; stroke-width: 1.5;" x1="859" x2="973" y1="315" y2="315"/><ellipse cx="869" cy="326" fill="#A6A6A6" rx="3" ry="3" style="stroke: #545454; stroke-width: 1.0;"/><text fill="#000000" font-family="Ricty Diminished" font-size="11" lengthAdjust="spacingAndGlyphs" text-decoration="underline" textLength="90" x="878" y="328.1736">New(int): void*</text><ellipse cx="869" cy="337.5356" fill="#A6A6A6" rx="3" ry="3" style="stroke: #545454; stroke-width: 1.0;"/><text fill="#000000" font-family="Ricty Diminished" font-size="11" lengthAdjust="spacingAndGlyphs" text-decoration="underline" textLength="84" x="878" y="339.7092">Delete(void**)</text><!--class HeapUsage--><rect fill="#F8F8F8" filter="url(#f1ab9b1ze0l6b2)" height="117.2139" id="HeapUsage" style="stroke: #383838; stroke-width: 1.5;" width="218" x="807" y="98"/><ellipse cx="884.75" cy="114" fill="#C2C2C2" rx="11" ry="11" style="stroke: #383838; stroke-width: 1.0;"/><path d="M887.4531,119.4375 Q886.5313,120.3594 884.2656,120.3594 Q883,120.3594 882.0781,119.4375 Q880.4219,117.7813 880.4219,114.25 Q880.4219,110.1406 882.2031,108.3438 Q883.1406,107.4219 884.3281,107.4219 Q886.5938,107.4219 887.3281,108.1406 Q888.7188,109.5469 888.6563,111.9375 L886.1875,111.9375 Q886.125,109.8125 885.3906,109.0781 Q885,108.6719 884.3281,108.6719 Q884.3281,108.6719 884.2656,109.1406 Q882.9375,110.4688 882.9375,114.125 Q882.9375,117.3125 884.0781,118.4375 Q884.6094,118.9688 884.6094,118.9688 Q884.8594,118.9688 885.3906,118.4375 Q886.0625,117.7813 886.125,115.3906 L888.7188,115.3906 Q888.5156,118.375 887.4531,119.4375 Z "/><text fill="#000000" font-family="Ricty Diminished" font-size="12" lengthAdjust="spacingAndGlyphs" textLength="54" x="905.25" y="117.718">HeapUsage</text><line style="stroke: #383838; stroke-width: 1.5;" x1="808" x2="1024" y1="130" y2="130"/><line style="stroke: #383838; stroke-width: 1.5;" x1="808" x2="1024" y1="138" y2="138"/><polygon fill="#6C6C6C" points="818,145,814,151,822,151" style="stroke: #535353; stroke-width: 1.0;"/><text fill="#000000" font-family="Ricty Diminished" font-size="11" lengthAdjust="spacingAndGlyphs" text-decoration="underline" textLength="48" x="827" y="151.1736">Add(int)</text><polygon fill="#6C6C6C" points="818,156.5356,814,162.5356,822,162.5356" style="stroke: #535353; stroke-width: 1.0;"/><text fill="#000000" font-family="Ricty Diminished" font-size="11" lengthAdjust="spacingAndGlyphs" text-decoration="underline" textLength="78" x="827" y="162.7092">Subtract(int)</text><polygon fill="#6C6C6C" points="818,168.0713,814,174.0713,822,174.0713" style="stroke: #535353; stroke-width: 1.0;"/><text fill="#000000" font-family="Ricty Diminished" font-size="11" lengthAdjust="spacingAndGlyphs" text-decoration="underline" textLength="108" x="827" y="174.2449">WarnIfNeeded(void)</text><ellipse cx="818" cy="183.6069" fill="#A6A6A6" rx="3" ry="3" style="stroke: #545454; stroke-width: 1.0;"/><text fill="#000000" font-family="Ricty Diminished" font-size="11" lengthAdjust="spacingAndGlyphs" text-decoration="underline" textLength="84" x="827" y="185.7805">Get(void): int</text><ellipse cx="818" cy="195.1426" fill="#A6A6A6" rx="3" ry="3" style="stroke: #545454; stroke-width: 1.0;"/><text fill="#000000" font-family="Ricty Diminished" font-size="11" lengthAdjust="spacingAndGlyphs" text-decoration="underline" textLength="66" x="827" y="197.3162">Clear(void)</text><ellipse cx="818" cy="206.6782" fill="#A6A6A6" rx="3" ry="3" style="stroke: #545454; stroke-width: 1.0;"/><text fill="#000000" font-family="Ricty Diminished" font-size="11" lengthAdjust="spacingAndGlyphs" text-decoration="underline" textLength="192" x="827" y="208.8518">SetWarning(int, WarningDelegate)</text><!--class IoData--><rect fill="#F8F8F8" filter="url(#f1ab9b1ze0l6b2)" height="94.1426" id="IoData" style="stroke: #383838; stroke-width: 1.5;" width="176" x="319" y="109.5"/><ellipse cx="384.75" cy="125.5" fill="#C2C2C2" rx="11" ry="11" style="stroke: #383838; stroke-width: 1.0;"/><path d="M387.4531,130.9375 Q386.5313,131.8594 384.2656,131.8594 Q383,131.8594 382.0781,130.9375 Q380.4219,129.2813 380.4219,125.75 Q380.4219,121.6406 382.2031,119.8438 Q383.1406,118.9219 384.3281,118.9219 Q386.5938,118.9219 387.3281,119.6406 Q388.7188,121.0469 388.6563,123.4375 L386.1875,123.4375 Q386.125,121.3125 385.3906,120.5781 Q385,120.1719 384.3281,120.1719 Q384.3281,120.1719 384.2656,120.6406 Q382.9375,121.9688 382.9375,125.625 Q382.9375,128.8125 384.0781,129.9375 Q384.6094,130.4688 384.6094,130.4688 Q384.8594,130.4688 385.3906,129.9375 Q386.0625,129.2813 386.125,126.8906 L388.7188,126.8906 Q388.5156,129.875 387.4531,130.9375 Z "/><text fill="#000000" font-family="Ricty Diminished" font-size="12" lengthAdjust="spacingAndGlyphs" textLength="36" x="405.25" y="129.218">IoData</text><line style="stroke: #383838; stroke-width: 1.5;" x1="320" x2="494" y1="141.5" y2="141.5"/><line style="stroke: #383838; stroke-width: 1.5;" x1="320" x2="494" y1="149.5" y2="149.5"/><ellipse cx="330" cy="160.5" fill="#A6A6A6" rx="3" ry="3" style="stroke: #545454; stroke-width: 1.0;"/><text fill="#000000" font-family="Ricty Diminished" font-size="11" lengthAdjust="spacingAndGlyphs" text-decoration="underline" textLength="144" x="339" y="162.6736">Write(IoAddress, IoData)</text><ellipse cx="330" cy="172.0356" fill="#A6A6A6" rx="3" ry="3" style="stroke: #545454; stroke-width: 1.0;"/><text fill="#000000" font-family="Ricty Diminished" font-size="11" lengthAdjust="spacingAndGlyphs" text-decoration="underline" textLength="132" x="339" y="174.2092">Add(IoAddress, IoData)</text><ellipse cx="330" cy="183.5713" fill="#A6A6A6" rx="3" ry="3" style="stroke: #545454; stroke-width: 1.0;"/><text fill="#000000" font-family="Ricty Diminished" font-size="11" lengthAdjust="spacingAndGlyphs" text-decoration="underline" textLength="150" x="339" y="185.7449">Remove(IoAddress, IoData)</text><ellipse cx="330" cy="195.1069" fill="#A6A6A6" rx="3" ry="3" style="stroke: #545454; stroke-width: 1.0;"/><text fill="#000000" font-family="Ricty Diminished" font-size="11" lengthAdjust="spacingAndGlyphs" text-decoration="underline" textLength="138" x="339" y="197.2805">Read(IoAddress): IoData</text><!--class ListNode--><rect fill="#F8F8F8" filter="url(#f1ab9b1ze0l6b2)" height="117.2139" id="ListNode" style="stroke: #383838; stroke-width: 1.5;" width="206" x="223" y="448.5"/><ellipse cx="297.75" cy="464.5" fill="#C2C2C2" rx="11" ry="11" style="stroke: #383838; stroke-width: 1.0;"/><path d="M300.4531,469.9375 Q299.5313,470.8594 297.2656,470.8594 Q296,470.8594 295.0781,469.9375 Q293.4219,468.2813 293.4219,464.75 Q293.4219,460.6406 295.2031,458.8438 Q296.1406,457.9219 297.3281,457.9219 Q299.5938,457.9219 300.3281,458.6406 Q301.7188,460.0469 301.6563,462.4375 L299.1875,462.4375 Q299.125,460.3125 298.3906,459.5781 Q298,459.1719 297.3281,459.1719 Q297.3281,459.1719 297.2656,459.6406 Q295.9375,460.9688 295.9375,464.625 Q295.9375,467.8125 297.0781,468.9375 Q297.6094,469.4688 297.6094,469.4688 Q297.8594,469.4688 298.3906,468.9375 Q299.0625,468.2813 299.125,465.8906 L301.7188,465.8906 Q301.5156,468.875 300.4531,469.9375 Z "/><text fill="#000000" font-family="Ricty Diminished" font-size="12" lengthAdjust="spacingAndGlyphs" textLength="48" x="318.25" y="468.218">ListNode</text><line style="stroke: #383838; stroke-width: 1.5;" x1="224" x2="428" y1="480.5" y2="480.5"/><line style="stroke: #383838; stroke-width: 1.5;" x1="224" x2="428" y1="488.5" y2="488.5"/><polygon fill="#6C6C6C" points="234,495.5,230,501.5,238,501.5" style="stroke: #535353; stroke-width: 1.0;"/><text fill="#000000" font-family="Ricty Diminished" font-size="11" lengthAdjust="spacingAndGlyphs" textLength="156" x="243" y="501.6736">New(const void*): ListNode</text><polygon fill="#6C6C6C" points="234,507.0356,230,513.0356,238,513.0356" style="stroke: #535353; stroke-width: 1.0;"/><text fill="#000000" font-family="Ricty Diminished" font-size="11" lengthAdjust="spacingAndGlyphs" textLength="102" x="243" y="513.2092">Delete(ListNode*)</text><polygon fill="#6C6C6C" points="234,518.5713,230,524.5713,238,524.5713" style="stroke: #535353; stroke-width: 1.0;"/><text fill="#000000" font-family="Ricty Diminished" font-size="11" lengthAdjust="spacingAndGlyphs" textLength="144" x="243" y="524.7449">GetItem(ListNode): void*</text><polygon fill="#6C6C6C" points="234,530.1069,230,536.1069,238,536.1069" style="stroke: #535353; stroke-width: 1.0;"/><text fill="#000000" font-family="Ricty Diminished" font-size="11" lengthAdjust="spacingAndGlyphs" textLength="180" x="243" y="536.2805">SetItem(ListNode, const void*)</text><polygon fill="#6C6C6C" points="234,541.6426,230,547.6426,238,547.6426" style="stroke: #535353; stroke-width: 1.0;"/><text fill="#000000" font-family="Ricty Diminished" font-size="11" lengthAdjust="spacingAndGlyphs" textLength="162" x="243" y="547.8162">GetNext(ListNode): ListNode</text><polygon fill="#6C6C6C" points="234,553.1782,230,559.1782,238,559.1782" style="stroke: #535353; stroke-width: 1.0;"/><text fill="#000000" font-family="Ricty Diminished" font-size="11" lengthAdjust="spacingAndGlyphs" textLength="162" x="243" y="559.3518">SetNext(ListNode, ListNode)</text><!--class List--><rect fill="#F8F8F8" filter="url(#f1ab9b1ze0l6b2)" height="163.3564" id="List" style="stroke: #383838; stroke-width: 1.5;" width="266" x="180" y="643"/><ellipse cx="296.75" cy="659" fill="#C2C2C2" rx="11" ry="11" style="stroke: #383838; stroke-width: 1.0;"/><path d="M299.4531,664.4375 Q298.5313,665.3594 296.2656,665.3594 Q295,665.3594 294.0781,664.4375 Q292.4219,662.7813 292.4219,659.25 Q292.4219,655.1406 294.2031,653.3438 Q295.1406,652.4219 296.3281,652.4219 Q298.5938,652.4219 299.3281,653.1406 Q300.7188,654.5469 300.6563,656.9375 L298.1875,656.9375 Q298.125,654.8125 297.3906,654.0781 Q297,653.6719 296.3281,653.6719 Q296.3281,653.6719 296.2656,654.1406 Q294.9375,655.4688 294.9375,659.125 Q294.9375,662.3125 296.0781,663.4375 Q296.6094,663.9688 296.6094,663.9688 Q296.8594,663.9688 297.3906,663.4375 Q298.0625,662.7813 298.125,660.3906 L300.7188,660.3906 Q300.5156,663.375 299.4531,664.4375 Z "/><text fill="#000000" font-family="Ricty Diminished" font-size="12" lengthAdjust="spacingAndGlyphs" textLength="24" x="317.25" y="662.718">List</text><line style="stroke: #383838; stroke-width: 1.5;" x1="181" x2="445" y1="675" y2="675"/><line style="stroke: #383838; stroke-width: 1.5;" x1="181" x2="445" y1="683" y2="683"/><ellipse cx="191" cy="694" fill="#A6A6A6" rx="3" ry="3" style="stroke: #545454; stroke-width: 1.0;"/><text fill="#000000" font-family="Ricty Diminished" font-size="11" lengthAdjust="spacingAndGlyphs" textLength="132" x="200" y="696.1736">New(const void*): List</text><ellipse cx="191" cy="705.5356" fill="#A6A6A6" rx="3" ry="3" style="stroke: #545454; stroke-width: 1.0;"/><text fill="#000000" font-family="Ricty Diminished" font-size="11" lengthAdjust="spacingAndGlyphs" textLength="78" x="200" y="707.7092">Delete(List*)</text><ellipse cx="191" cy="717.0713" fill="#A6A6A6" rx="3" ry="3" style="stroke: #545454; stroke-width: 1.0;"/><text fill="#000000" font-family="Ricty Diminished" font-size="11" lengthAdjust="spacingAndGlyphs" textLength="96" x="200" y="719.2449">Count(List): int</text><ellipse cx="191" cy="728.6069" fill="#A6A6A6" rx="3" ry="3" style="stroke: #545454; stroke-width: 1.0;"/><text fill="#000000" font-family="Ricty Diminished" font-size="11" lengthAdjust="spacingAndGlyphs" textLength="126" x="200" y="730.7805">Get(List, int): void*</text><ellipse cx="191" cy="740.1426" fill="#A6A6A6" rx="3" ry="3" style="stroke: #545454; stroke-width: 1.0;"/><text fill="#000000" font-family="Ricty Diminished" font-size="11" lengthAdjust="spacingAndGlyphs" textLength="132" x="200" y="742.3162">Add(List, const void*)</text><ellipse cx="191" cy="751.6782" fill="#A6A6A6" rx="3" ry="3" style="stroke: #545454; stroke-width: 1.0;"/><text fill="#000000" font-family="Ricty Diminished" font-size="11" lengthAdjust="spacingAndGlyphs" textLength="66" x="200" y="753.8518">Clear(List)</text><ellipse cx="191" cy="763.2139" fill="#A6A6A6" rx="3" ry="3" style="stroke: #545454; stroke-width: 1.0;"/><text fill="#000000" font-family="Ricty Diminished" font-size="11" lengthAdjust="spacingAndGlyphs" textLength="180" x="200" y="765.3875">Find(List, const void*): void*</text><ellipse cx="191" cy="774.7495" fill="#A6A6A6" rx="3" ry="3" style="stroke: #545454; stroke-width: 1.0;"/><text fill="#000000" font-family="Ricty Diminished" font-size="11" lengthAdjust="spacingAndGlyphs" textLength="126" x="200" y="776.9231">Pop(List, int): void*</text><ellipse cx="191" cy="786.2852" fill="#A6A6A6" rx="3" ry="3" style="stroke: #545454; stroke-width: 1.0;"/><text fill="#000000" font-family="Ricty Diminished" font-size="11" lengthAdjust="spacingAndGlyphs" textLength="240" x="200" y="788.4587">SetItemComparer(List, ComparerInterface)</text><ellipse cx="191" cy="797.8208" fill="#A6A6A6" rx="3" ry="3" style="stroke: #545454; stroke-width: 1.0;"/><text fill="#000000" font-family="Ricty Diminished" font-size="11" lengthAdjust="spacingAndGlyphs" textLength="228" x="200" y="799.9944">SetItemDeleter(List, DeleterInterface)</text><!--class Queue--><rect fill="#F8F8F8" filter="url(#f1ab9b1ze0l6b2)" height="151.8208" id="Queue" style="stroke: #383838; stroke-width: 1.5;" width="224" x="804" y="431"/><ellipse cx="896.75" cy="447" fill="#C2C2C2" rx="11" ry="11" style="stroke: #383838; stroke-width: 1.0;"/><path d="M899.4531,452.4375 Q898.5313,453.3594 896.2656,453.3594 Q895,453.3594 894.0781,452.4375 Q892.4219,450.7813 892.4219,447.25 Q892.4219,443.1406 894.2031,441.3438 Q895.1406,440.4219 896.3281,440.4219 Q898.5938,440.4219 899.3281,441.1406 Q900.7188,442.5469 900.6563,444.9375 L898.1875,444.9375 Q898.125,442.8125 897.3906,442.0781 Q897,441.6719 896.3281,441.6719 Q896.3281,441.6719 896.2656,442.1406 Q894.9375,443.4688 894.9375,447.125 Q894.9375,450.3125 896.0781,451.4375 Q896.6094,451.9688 896.6094,451.9688 Q896.8594,451.9688 897.3906,451.4375 Q898.0625,450.7813 898.125,448.3906 L900.7188,448.3906 Q900.5156,451.375 899.4531,452.4375 Z "/><text fill="#000000" font-family="Ricty Diminished" font-size="12" lengthAdjust="spacingAndGlyphs" textLength="30" x="917.25" y="450.718">Queue</text><line style="stroke: #383838; stroke-width: 1.5;" x1="805" x2="1027" y1="463" y2="463"/><line style="stroke: #383838; stroke-width: 1.5;" x1="805" x2="1027" y1="471" y2="471"/><ellipse cx="815" cy="482" fill="#A6A6A6" rx="3" ry="3" style="stroke: #545454; stroke-width: 1.0;"/><text fill="#000000" font-family="Ricty Diminished" font-size="11" lengthAdjust="spacingAndGlyphs" textLength="90" x="824" y="484.1736">New(int): Queue</text><ellipse cx="815" cy="493.5356" fill="#A6A6A6" rx="3" ry="3" style="stroke: #545454; stroke-width: 1.0;"/><text fill="#000000" font-family="Ricty Diminished" font-size="11" lengthAdjust="spacingAndGlyphs" textLength="84" x="824" y="495.7092">Delete(Queue*)</text><ellipse cx="815" cy="505.0713" fill="#A6A6A6" rx="3" ry="3" style="stroke: #545454; stroke-width: 1.0;"/><text fill="#000000" font-family="Ricty Diminished" font-size="11" lengthAdjust="spacingAndGlyphs" textLength="138" x="824" y="507.2449">Enqueue(Queue, uint8_t)</text><ellipse cx="815" cy="516.6069" fill="#A6A6A6" rx="3" ry="3" style="stroke: #545454; stroke-width: 1.0;"/><text fill="#000000" font-family="Ricty Diminished" font-size="11" lengthAdjust="spacingAndGlyphs" textLength="138" x="824" y="518.7805">Dequeue(Queue): uint8_t</text><ellipse cx="815" cy="528.1426" fill="#A6A6A6" rx="3" ry="3" style="stroke: #545454; stroke-width: 1.0;"/><text fill="#000000" font-family="Ricty Diminished" font-size="11" lengthAdjust="spacingAndGlyphs" textLength="198" x="824" y="530.3162">Add(Queue, int, const void* data)</text><ellipse cx="815" cy="539.6782" fill="#A6A6A6" rx="3" ry="3" style="stroke: #545454; stroke-width: 1.0;"/><text fill="#000000" font-family="Ricty Diminished" font-size="11" lengthAdjust="spacingAndGlyphs" textLength="132" x="824" y="541.8518">Pop(Queue, int, void*)</text><ellipse cx="815" cy="551.2139" fill="#A6A6A6" rx="3" ry="3" style="stroke: #545454; stroke-width: 1.0;"/><text fill="#000000" font-family="Ricty Diminished" font-size="11" lengthAdjust="spacingAndGlyphs" textLength="72" x="824" y="553.3875">Clear(Queue)</text><ellipse cx="815" cy="562.7495" fill="#A6A6A6" rx="3" ry="3" style="stroke: #545454; stroke-width: 1.0;"/><text fill="#000000" font-family="Ricty Diminished" font-size="11" lengthAdjust="spacingAndGlyphs" textLength="90" x="824" y="564.9231">UsedSize(Queue)</text><ellipse cx="815" cy="574.2852" fill="#A6A6A6" rx="3" ry="3" style="stroke: #545454; stroke-width: 1.0;"/><text fill="#000000" font-family="Ricty Diminished" font-size="11" lengthAdjust="spacingAndGlyphs" textLength="120" x="824" y="576.4587">AvailableSize(Queue)</text><!--class Xorshift--><rect fill="#F8F8F8" filter="url(#f1ab9b1ze0l6b2)" height="94.1426" id="Xorshift" style="stroke: #383838; stroke-width: 1.5;" width="278" x="1596" y="460"/><ellipse cx="1706.75" cy="476" fill="#CDCDCD" rx="11" ry="11" style="stroke: #383838; stroke-width: 1.0;"/><path d="M1704.6094,481.8594 L1702.0156,481.8594 L1705.3438,468.9219 L1707.6719,468.9219 L1710.9844,481.8594 L1708.3906,481.8594 L1707.4688,478.0781 L1705.5469,478.0781 L1704.6094,481.8594 Z M1706.0625,472.4375 L1706.0625,472.4375 L1705.875,476.8125 L1707.125,476.8125 L1706.0625,472.4375 Z "/><text fill="#000000" font-family="Ricty Diminished" font-size="12" font-style="italic" lengthAdjust="spacingAndGlyphs" textLength="48" x="1727.25" y="479.718">Xorshift</text><line style="stroke: #383838; stroke-width: 1.5;" x1="1597" x2="1873" y1="492" y2="492"/><line style="stroke: #383838; stroke-width: 1.5;" x1="1597" x2="1873" y1="500" y2="500"/><polygon fill="#EAEAEA" points="1607,506,1611,510,1607,514,1603,510" style="stroke: #8C8C8C; stroke-width: 1.0;"/><text fill="#000000" font-family="Ricty Diminished" font-size="11" lengthAdjust="spacingAndGlyphs" textLength="252" x="1616" y="513.1736">New(int, XorshiftAbstractMethod): Xorshift</text><ellipse cx="1607" cy="522.5356" fill="#A6A6A6" rx="3" ry="3" style="stroke: #545454; stroke-width: 1.0;"/><text fill="#000000" font-family="Ricty Diminished" font-size="11" lengthAdjust="spacingAndGlyphs" textLength="102" x="1616" y="524.7092">Delete(Xorshift*)</text><ellipse cx="1607" cy="534.0713" fill="#A6A6A6" rx="3" ry="3" style="stroke: #545454; stroke-width: 1.0;"/><text fill="#000000" font-family="Ricty Diminished" font-size="11" lengthAdjust="spacingAndGlyphs" textLength="186" x="1616" y="536.2449">Give(Xorshift, const uint32_t*)</text><ellipse cx="1607" cy="545.6069" fill="#A6A6A6" rx="3" ry="3" style="stroke: #545454; stroke-width: 1.0;"/><text fill="#000000" font-family="Ricty Diminished" font-size="11" font-style="italic" lengthAdjust="spacingAndGlyphs" textLength="168" x="1616" y="547.7805">Generate(Xorshift): uint32_t</text><!--class Xorshift32--><rect fill="#F8F8F8" filter="url(#f1ab9b1ze0l6b2)" height="59.5356" id="Xorshift32" style="stroke: #383838; stroke-width: 1.5;" width="140" x="1490" y="694.5"/><ellipse cx="1526.6" cy="710.5" fill="#C2C2C2" rx="11" ry="11" style="stroke: #383838; stroke-width: 1.0;"/><path d="M1529.3031,715.9375 Q1528.3813,716.8594 1526.1156,716.8594 Q1524.85,716.8594 1523.9281,715.9375 Q1522.2719,714.2813 1522.2719,710.75 Q1522.2719,706.6406 1524.0531,704.8438 Q1524.9906,703.9219 1526.1781,703.9219 Q1528.4438,703.9219 1529.1781,704.6406 Q1530.5688,706.0469 1530.5063,708.4375 L1528.0375,708.4375 Q1527.975,706.3125 1527.2406,705.5781 Q1526.85,705.1719 1526.1781,705.1719 Q1526.1781,705.1719 1526.1156,705.6406 Q1524.7875,706.9688 1524.7875,710.625 Q1524.7875,713.8125 1525.9281,714.9375 Q1526.4594,715.4688 1526.4594,715.4688 Q1526.7094,715.4688 1527.2406,714.9375 Q1527.9125,714.2813 1527.975,711.8906 L1530.5688,711.8906 Q1530.3656,714.875 1529.3031,715.9375 Z "/><text fill="#000000" font-family="Ricty Diminished" font-size="12" lengthAdjust="spacingAndGlyphs" textLength="60" x="1545.4" y="714.218">Xorshift32</text><line style="stroke: #383838; stroke-width: 1.5;" x1="1491" x2="1629" y1="726.5" y2="726.5"/><line style="stroke: #383838; stroke-width: 1.5;" x1="1491" x2="1629" y1="734.5" y2="734.5"/><ellipse cx="1501" cy="745.5" fill="#A6A6A6" rx="3" ry="3" style="stroke: #545454; stroke-width: 1.0;"/><text fill="#000000" font-family="Ricty Diminished" font-size="11" lengthAdjust="spacingAndGlyphs" textLength="114" x="1510" y="747.6736">New(void): Xorshift</text><!--class Xorshift64--><rect fill="#F8F8F8" filter="url(#f1ab9b1ze0l6b2)" height="59.5356" id="Xorshift64" style="stroke: #383838; stroke-width: 1.5;" width="140" x="1665" y="694.5"/><ellipse cx="1701.6" cy="710.5" fill="#C2C2C2" rx="11" ry="11" style="stroke: #383838; stroke-width: 1.0;"/><path d="M1704.3031,715.9375 Q1703.3813,716.8594 1701.1156,716.8594 Q1699.85,716.8594 1698.9281,715.9375 Q1697.2719,714.2813 1697.2719,710.75 Q1697.2719,706.6406 1699.0531,704.8438 Q1699.9906,703.9219 1701.1781,703.9219 Q1703.4438,703.9219 1704.1781,704.6406 Q1705.5688,706.0469 1705.5063,708.4375 L1703.0375,708.4375 Q1702.975,706.3125 1702.2406,705.5781 Q1701.85,705.1719 1701.1781,705.1719 Q1701.1781,705.1719 1701.1156,705.6406 Q1699.7875,706.9688 1699.7875,710.625 Q1699.7875,713.8125 1700.9281,714.9375 Q1701.4594,715.4688 1701.4594,715.4688 Q1701.7094,715.4688 1702.2406,714.9375 Q1702.9125,714.2813 1702.975,711.8906 L1705.5688,711.8906 Q1705.3656,714.875 1704.3031,715.9375 Z "/><text fill="#000000" font-family="Ricty Diminished" font-size="12" lengthAdjust="spacingAndGlyphs" textLength="60" x="1720.4" y="714.218">Xorshift64</text><line style="stroke: #383838; stroke-width: 1.5;" x1="1666" x2="1804" y1="726.5" y2="726.5"/><line style="stroke: #383838; stroke-width: 1.5;" x1="1666" x2="1804" y1="734.5" y2="734.5"/><ellipse cx="1676" cy="745.5" fill="#A6A6A6" rx="3" ry="3" style="stroke: #545454; stroke-width: 1.0;"/><text fill="#000000" font-family="Ricty Diminished" font-size="11" lengthAdjust="spacingAndGlyphs" textLength="114" x="1685" y="747.6736">New(void): Xorshift</text><!--class Xorshift96--><rect fill="#F8F8F8" filter="url(#f1ab9b1ze0l6b2)" height="59.5356" id="Xorshift96" style="stroke: #383838; stroke-width: 1.5;" width="140" x="1840" y="694.5"/><ellipse cx="1876.6" cy="710.5" fill="#C2C2C2" rx="11" ry="11" style="stroke: #383838; stroke-width: 1.0;"/><path d="M1879.3031,715.9375 Q1878.3813,716.8594 1876.1156,716.8594 Q1874.85,716.8594 1873.9281,715.9375 Q1872.2719,714.2813 1872.2719,710.75 Q1872.2719,706.6406 1874.0531,704.8438 Q1874.9906,703.9219 1876.1781,703.9219 Q1878.4438,703.9219 1879.1781,704.6406 Q1880.5688,706.0469 1880.5063,708.4375 L1878.0375,708.4375 Q1877.975,706.3125 1877.2406,705.5781 Q1876.85,705.1719 1876.1781,705.1719 Q1876.1781,705.1719 1876.1156,705.6406 Q1874.7875,706.9688 1874.7875,710.625 Q1874.7875,713.8125 1875.9281,714.9375 Q1876.4594,715.4688 1876.4594,715.4688 Q1876.7094,715.4688 1877.2406,714.9375 Q1877.9125,714.2813 1877.975,711.8906 L1880.5688,711.8906 Q1880.3656,714.875 1879.3031,715.9375 Z "/><text fill="#000000" font-family="Ricty Diminished" font-size="12" lengthAdjust="spacingAndGlyphs" textLength="60" x="1895.4" y="714.218">Xorshift96</text><line style="stroke: #383838; stroke-width: 1.5;" x1="1841" x2="1979" y1="726.5" y2="726.5"/><line style="stroke: #383838; stroke-width: 1.5;" x1="1841" x2="1979" y1="734.5" y2="734.5"/><ellipse cx="1851" cy="745.5" fill="#A6A6A6" rx="3" ry="3" style="stroke: #545454; stroke-width: 1.0;"/><text fill="#000000" font-family="Ricty Diminished" font-size="11" lengthAdjust="spacingAndGlyphs" textLength="114" x="1860" y="747.6736">New(void): Xorshift</text><!--class Xorshift128--><rect fill="#F8F8F8" filter="url(#f1ab9b1ze0l6b2)" height="59.5356" id="Xorshift128" style="stroke: #383838; stroke-width: 1.5;" width="140" x="2015" y="694.5"/><ellipse cx="2048.9" cy="710.5" fill="#C2C2C2" rx="11" ry="11" style="stroke: #383838; stroke-width: 1.0;"/><path d="M2051.6031,715.9375 Q2050.6813,716.8594 2048.4156,716.8594 Q2047.15,716.8594 2046.2281,715.9375 Q2044.5719,714.2813 2044.5719,710.75 Q2044.5719,706.6406 2046.3531,704.8438 Q2047.2906,703.9219 2048.4781,703.9219 Q2050.7438,703.9219 2051.4781,704.6406 Q2052.8688,706.0469 2052.8063,708.4375 L2050.3375,708.4375 Q2050.275,706.3125 2049.5406,705.5781 Q2049.15,705.1719 2048.4781,705.1719 Q2048.4781,705.1719 2048.4156,705.6406 Q2047.0875,706.9688 2047.0875,710.625 Q2047.0875,713.8125 2048.2281,714.9375 Q2048.7594,715.4688 2048.7594,715.4688 Q2049.0094,715.4688 2049.5406,714.9375 Q2050.2125,714.2813 2050.275,711.8906 L2052.8688,711.8906 Q2052.6656,714.875 2051.6031,715.9375 Z "/><text fill="#000000" font-family="Ricty Diminished" font-size="12" lengthAdjust="spacingAndGlyphs" textLength="66" x="2067.1" y="714.218">Xorshift128</text><line style="stroke: #383838; stroke-width: 1.5;" x1="2016" x2="2154" y1="726.5" y2="726.5"/><line style="stroke: #383838; stroke-width: 1.5;" x1="2016" x2="2154" y1="734.5" y2="734.5"/><ellipse cx="2026" cy="745.5" fill="#A6A6A6" rx="3" ry="3" style="stroke: #545454; stroke-width: 1.0;"/><text fill="#000000" font-family="Ricty Diminished" font-size="11" lengthAdjust="spacingAndGlyphs" textLength="114" x="2035" y="747.6736">New(void): Xorshift</text><!--class XorshiftPlus--><rect fill="#F8F8F8" filter="url(#f1ab9b1ze0l6b2)" height="94.1426" id="XorshiftPlus" style="stroke: #383838; stroke-width: 1.5;" width="326" x="1108" y="460"/><ellipse cx="1230.75" cy="476" fill="#CDCDCD" rx="11" ry="11" style="stroke: #383838; stroke-width: 1.0;"/><path d="M1228.6094,481.8594 L1226.0156,481.8594 L1229.3438,468.9219 L1231.6719,468.9219 L1234.9844,481.8594 L1232.3906,481.8594 L1231.4688,478.0781 L1229.5469,478.0781 L1228.6094,481.8594 Z M1230.0625,472.4375 L1230.0625,472.4375 L1229.875,476.8125 L1231.125,476.8125 L1230.0625,472.4375 Z "/><text fill="#000000" font-family="Ricty Diminished" font-size="12" font-style="italic" lengthAdjust="spacingAndGlyphs" textLength="72" x="1251.25" y="479.718">XorshiftPlus</text><line style="stroke: #383838; stroke-width: 1.5;" x1="1109" x2="1433" y1="492" y2="492"/><line style="stroke: #383838; stroke-width: 1.5;" x1="1109" x2="1433" y1="500" y2="500"/><polygon fill="#EAEAEA" points="1119,506,1123,510,1119,514,1115,510" style="stroke: #8C8C8C; stroke-width: 1.0;"/><text fill="#000000" font-family="Ricty Diminished" font-size="11" lengthAdjust="spacingAndGlyphs" textLength="300" x="1128" y="513.1736">New(int, XorshiftPlusAbstractMethod): XorshiftPlus</text><ellipse cx="1119" cy="522.5356" fill="#A6A6A6" rx="3" ry="3" style="stroke: #545454; stroke-width: 1.0;"/><text fill="#000000" font-family="Ricty Diminished" font-size="11" lengthAdjust="spacingAndGlyphs" textLength="126" x="1128" y="524.7092">Delete(XorshiftPlus*)</text><ellipse cx="1119" cy="534.0713" fill="#A6A6A6" rx="3" ry="3" style="stroke: #545454; stroke-width: 1.0;"/><text fill="#000000" font-family="Ricty Diminished" font-size="11" lengthAdjust="spacingAndGlyphs" textLength="210" x="1128" y="536.2449">Give(XorshiftPlus, const uint64_t*)</text><ellipse cx="1119" cy="545.6069" fill="#A6A6A6" rx="3" ry="3" style="stroke: #545454; stroke-width: 1.0;"/><text fill="#000000" font-family="Ricty Diminished" font-size="11" font-style="italic" lengthAdjust="spacingAndGlyphs" textLength="192" x="1128" y="547.7805">Generate(XorshiftPlus): uint64_t</text><!--class Xorshift128Plus--><rect fill="#F8F8F8" filter="url(#f1ab9b1ze0l6b2)" height="59.5356" id="Xorshift128Plus" style="stroke: #383838; stroke-width: 1.5;" width="164" x="1189" y="694.5"/><ellipse cx="1222.9" cy="710.5" fill="#C2C2C2" rx="11" ry="11" style="stroke: #383838; stroke-width: 1.0;"/><path d="M1225.6031,715.9375 Q1224.6813,716.8594 1222.4156,716.8594 Q1221.15,716.8594 1220.2281,715.9375 Q1218.5719,714.2813 1218.5719,710.75 Q1218.5719,706.6406 1220.3531,704.8438 Q1221.2906,703.9219 1222.4781,703.9219 Q1224.7438,703.9219 1225.4781,704.6406 Q1226.8688,706.0469 1226.8063,708.4375 L1224.3375,708.4375 Q1224.275,706.3125 1223.5406,705.5781 Q1223.15,705.1719 1222.4781,705.1719 Q1222.4781,705.1719 1222.4156,705.6406 Q1221.0875,706.9688 1221.0875,710.625 Q1221.0875,713.8125 1222.2281,714.9375 Q1222.7594,715.4688 1222.7594,715.4688 Q1223.0094,715.4688 1223.5406,714.9375 Q1224.2125,714.2813 1224.275,711.8906 L1226.8688,711.8906 Q1226.6656,714.875 1225.6031,715.9375 Z "/><text fill="#000000" font-family="Ricty Diminished" font-size="12" lengthAdjust="spacingAndGlyphs" textLength="90" x="1241.1" y="714.218">Xorshift128Plus</text><line style="stroke: #383838; stroke-width: 1.5;" x1="1190" x2="1352" y1="726.5" y2="726.5"/><line style="stroke: #383838; stroke-width: 1.5;" x1="1190" x2="1352" y1="734.5" y2="734.5"/><ellipse cx="1200" cy="745.5" fill="#A6A6A6" rx="3" ry="3" style="stroke: #545454; stroke-width: 1.0;"/><text fill="#000000" font-family="Ricty Diminished" font-size="11" lengthAdjust="spacingAndGlyphs" textLength="138" x="1209" y="747.6736">New(void): XorshiftPlus</text><!--reverse link HeapUsage to Heap--><path d="M916,220.582 C916,239.071 916,258.611 916,274.65 " fill="none" id="HeapUsage&lt;-Heap" style="stroke: #383838; stroke-width: 1.0;"/><polygon fill="#383838" points="916,215.398,912,224.398,916,220.398,920,224.398,916,215.398" style="stroke: #383838; stroke-width: 1.0;"/><!--reverse link Heap to ListNode--><path d="M852.8,314.57 C738.769,321.023 503.869,338.76 433,378 C403.353,394.415 378.456,422.562 360.159,448.289 " fill="none" id="Heap&lt;-ListNode" style="stroke: #383838; stroke-width: 1.0;"/><polygon fill="#383838" points="857.804,314.29,848.5942,310.8002,852.8118,314.57,849.0421,318.7877,857.804,314.29" style="stroke: #383838; stroke-width: 1.0;"/><!--reverse link Heap to List--><path d="M852.938,329.888 C828.794,340.146 803.382,355.526 788,378 C730.174,462.489 829.977,529.565 763,607 C721.788,654.647 563.474,687.508 446.218,705.896 " fill="none" id="Heap&lt;-List" style="stroke: #383838; stroke-width: 1.0;"/><polygon fill="#383838" points="857.747,327.904,847.9017,327.6386,853.1249,329.8108,850.9527,335.034,857.747,327.904" style="stroke: #383838; stroke-width: 1.0;"/><!--reverse link ListNode to List--><path d="M322.211,570.806 C320.852,593.341 319.3,619.072 317.862,642.906 " fill="none" id="ListNode&lt;-List" style="stroke: #383838; stroke-width: 1.0;"/><polygon fill="#383838" points="322.516,565.75,317.9833,574.4938,322.216,570.741,325.9688,574.9738,322.516,565.75" style="stroke: #383838; stroke-width: 1.0;"/><!--reverse link Comparer to List--><path d="M561.235,540.299 C524.564,567.363 470.617,607.176 422.374,642.78 " fill="none" id="Comparer&lt;-List" style="stroke: #383838; stroke-width: 1.0;"/><polygon fill="#383838" points="565.62,537.063,556.0037,539.1905,561.5975,540.0327,560.7553,545.6266,565.62,537.063" style="stroke: #383838; stroke-width: 1.0;"/><!--reverse link Deleter to List--><path d="M113.622,541.596 C126.758,561.666 144.861,587.052 164,607 C175.821,619.321 188.988,631.444 202.465,642.94 " fill="none" id="Deleter&lt;-List" style="stroke: #383838; stroke-width: 1.0;"/><polygon fill="#383838" points="110.895,537.398,112.442,547.1246,113.6182,541.5914,119.1514,542.7675,110.895,537.398" style="stroke: #383838; stroke-width: 1.0;"/><!--reverse link Heap to Queue--><path d="M916,351.349 C916,374.241 916,403.742 916,430.829 " fill="none" id="Heap&lt;-Queue" style="stroke: #383838; stroke-width: 1.0;"/><polygon fill="#383838" points="916,346.273,912,355.273,916,351.273,920,355.273,916,346.273" style="stroke: #383838; stroke-width: 1.0;"/><!--reverse link Heap to Xorshift--><path d="M979.04,313.296 C1080.17,317.515 1284.12,331.553 1450,378 C1519.99,397.597 1594.8,431.749 1650.2,459.849 " fill="none" id="Heap&lt;-Xorshift" style="stroke: #383838; stroke-width: 1.0;"/><polygon fill="#383838" points="974.007,313.091,982.8373,317.4529,979.0029,313.2939,983.1619,309.4594,974.007,313.091" style="stroke: #383838; stroke-width: 1.0;"/><!--reverse link Xorshift to Xorshift32--><path d="M1684.77,569.86 C1651.58,610.726 1609.6,662.422 1583.78,694.213 " fill="none" id="Xorshift&lt;-Xorshift32" style="stroke: #383838; stroke-width: 1.0;"/><polygon fill="none" points="1679.42,565.343,1697.46,554.23,1690.28,574.169,1679.42,565.343" style="stroke: #383838; stroke-width: 1.0;"/><!--reverse link Xorshift to Xorshift64--><path d="M1735,574.239 C1735,614.361 1735,663.547 1735,694.213 " fill="none" id="Xorshift&lt;-Xorshift64" style="stroke: #383838; stroke-width: 1.0;"/><polygon fill="none" points="1728,574.23,1735,554.23,1742,574.23,1728,574.23" style="stroke: #383838; stroke-width: 1.0;"/><!--reverse link Xorshift to Xorshift96--><path d="M1785.23,569.86 C1818.42,610.726 1860.4,662.422 1886.22,694.213 " fill="none" id="Xorshift&lt;-Xorshift96" style="stroke: #383838; stroke-width: 1.0;"/><polygon fill="none" points="1779.72,574.169,1772.54,554.23,1790.58,565.343,1779.72,574.169" style="stroke: #383838; stroke-width: 1.0;"/><!--reverse link Xorshift to Xorshift128--><path d="M1858.62,562.801 C1904.02,585.13 1954.84,612.81 1998,643 C2019.41,657.98 2040.99,677.909 2057.3,694.19 " fill="none" id="Xorshift&lt;-Xorshift128" style="stroke: #383838; stroke-width: 1.0;"/><polygon fill="none" points="1855.48,569.056,1840.53,554.04,1861.58,556.456,1855.48,569.056" style="stroke: #383838; stroke-width: 1.0;"/><!--reverse link Heap to XorshiftPlus--><path d="M978.884,343.626 C999.692,354.401 1022.91,366.581 1044,378 C1093.03,404.552 1147.47,435.207 1190.74,459.859 " fill="none" id="Heap&lt;-XorshiftPlus" style="stroke: #383838; stroke-width: 1.0;"/><polygon fill="#383838" points="974.206,341.206,980.3625,348.8935,978.6471,343.503,984.0377,341.7877,974.206,341.206" style="stroke: #383838; stroke-width: 1.0;"/><!--reverse link XorshiftPlus to Xorshift128Plus--><path d="M1271,574.239 C1271,614.361 1271,663.547 1271,694.213 " fill="none" id="XorshiftPlus&lt;-Xorshift128Plus" style="stroke: #383838; stroke-width: 1.0;"/><polygon fill="none" points="1264,574.23,1271,554.23,1278,574.23,1264,574.23" style="stroke: #383838; stroke-width: 1.0;"/><!--
@startuml class_diagram
skinparam {
    defaultFontName Ricty Diminished
    monochrome true
}

package Bleu {
    folder heap {
        class Heap {
            + {static} New(int): void*
            + {static} Delete(void**)
        }
        class HeapUsage {
            ~ {static} Add(int)
            ~ {static} Subtract(int)
            ~ {static} WarnIfNeeded(void)
            + {static} Get(void): int
            + {static} Clear(void)
            + {static} SetWarning(int, WarningDelegate)
        }
    }
    folder io_data {
        class IoData {
            + {static} Write(IoAddress, IoData)
            + {static} Add(IoAddress, IoData)
            + {static} Remove(IoAddress, IoData)
            + {static} Read(IoAddress): IoData
        }
    }
    folder list {
        class ListNode {
            ~ New(const void*): ListNode
            ~ Delete(ListNode*)
            ~ GetItem(ListNode): void*
            ~ SetItem(ListNode, const void*)
            ~ GetNext(ListNode): ListNode
            ~ SetNext(ListNode, ListNode)
        }
        class List {
            + New(const void*): List
            + Delete(List*)
            + Count(List): int
            + Get(List, int): void*
            + Add(List, const void*)
            + Clear(List)
            + Find(List, const void*): void*
            + Pop(List, int): void*
            + SetItemComparer(List, ComparerInterface)
            + SetItemDeleter(List, DeleterInterface)
        }
    }
    interface Comparer {
        + Compare(const void*, const void*): int
    }
    interface Deleter {
        + Delete(void**)
    }
    folder queue {
        class Queue {
            + New(int): Queue
            + Delete(Queue*)
            + Enqueue(Queue, uint8_t)
            + Dequeue(Queue): uint8_t
            + Add(Queue, int, const void* data)
            + Pop(Queue, int, void*)
            + Clear(Queue)
            + UsedSize(Queue)
            + AvailableSize(Queue)
        }
    }
    folder rng {
        folder xorshift {
            abstract Xorshift {
                # New(int, XorshiftAbstractMethod): Xorshift
                + Delete(Xorshift*)
                + Give(Xorshift, const uint32_t*)
                + {abstract} Generate(Xorshift): uint32_t
            }
            class Xorshift32 {
                + New(void): Xorshift
            }
            class Xorshift64 {
                + New(void): Xorshift
            }
            class Xorshift96 {
                + New(void): Xorshift
            }
            class Xorshift128 {
                + New(void): Xorshift
            }
        }
        folder xorshift_plus {
            abstract XorshiftPlus {
                # New(int, XorshiftPlusAbstractMethod): XorshiftPlus
                + Delete(XorshiftPlus*)
                + Give(XorshiftPlus, const uint64_t*)
                + {abstract} Generate(XorshiftPlus): uint64_t
            }
            class Xorshift128Plus {
                + New(void): XorshiftPlus
            }
        }
    }

    HeapUsage <- - Heap
    Heap <- - ListNode
    Heap <- - List
    ListNode <- - List
    Comparer <- - List
    Deleter <- - List
    Heap <- - Queue
    Heap <- - Xorshift
    Xorshift <|- - Xorshift32
    Xorshift <|- - Xorshift64
    Xorshift <|- - Xorshift96
    Xorshift <|- - Xorshift128
    Heap <- - XorshiftPlus
    XorshiftPlus <|- - Xorshift128Plus
}
@enduml

PlantUML version 1.2019.09(Tue Aug 27 01:19:51 JST 2019)
(GPL source distribution)
Java Runtime: Java(TM) SE Runtime Environment
JVM: Java HotSpot(TM) 64-Bit Server VM
Java Version: 1.8.0_221-b11
Operating System: Windows 10
OS Version: 10.0
Default Encoding: MS932
Language: en
Country: GB
--></g></svg>